<?xml version="1.0" encoding="utf-8"?>
<!-- Generator: Adobe Illustrator 17.1.0, SVG Export Plug-In . SVG Version: 6.00 Build 0)  -->
<!DOCTYPE svg PUBLIC "-//W3C//DTD SVG 1.1//EN" "http://www.w3.org/Graphics/SVG/1.1/DTD/svg11.dtd">
<svg version="1.1" id="Layer_1" xmlns="http://www.w3.org/2000/svg" xmlns:xlink="http://www.w3.org/1999/xlink" x="0px" y="0px"
	 viewBox="0 0 24 24" enable-background="new 0 0 24 24" xml:space="preserve">
<path d="M12,0C5.4,0,0,5.4,0,12s5.4,12,12,12s12-5.4,12-12S18.6,0,12,0z M20.5,19c-1.1-0.5-3.7-1.4-5.3-1.8c-0.1,0-0.2,0-0.2-0.6
	c0-0.5,0.2-0.9,0.4-1.3c0.2-0.4,0.4-1.2,0.5-1.8c0.2-0.3,0.6-0.8,0.8-1.9c0.2-0.9,0.1-1.3,0-1.6c0,0,0-0.1,0-0.1
	c0-0.2,0-1.4,0.2-2.2c0.1-0.6,0-1.9-0.9-3c-0.5-0.7-1.5-1.5-3.4-1.6l-1,0C9.8,3.1,8.8,3.9,8.2,4.6c-0.8,1.1-1,2.4-0.9,3
	c0.2,0.9,0.2,2,0.2,2.2c0,0,0,0.1,0,0.1c-0.1,0.3-0.2,0.7,0,1.6c0.2,1.1,0.5,1.6,0.8,1.9c0.1,0.7,0.3,1.4,0.5,1.8
	C9,15.6,9,16,9,16.6c0,0.6,0,0.6-0.1,0.6c-1.7,0.5-4.3,1.4-5.3,1.9C2,17.2,1,14.7,1,12C1,5.9,5.9,1,12,1s11,4.9,11,11
	C23,14.7,22,17.1,20.5,19z"/>
</svg>
