<?xml version="1.0" encoding="utf-8"?>
<!-- Generator: Adobe Illustrator 17.1.0, SVG Export Plug-In . SVG Version: 6.00 Build 0)  -->
<!DOCTYPE svg PUBLIC "-//W3C//DTD SVG 1.1//EN" "http://www.w3.org/Graphics/SVG/1.1/DTD/svg11.dtd">
<svg version="1.1" id="Layer_1" xmlns="http://www.w3.org/2000/svg" xmlns:xlink="http://www.w3.org/1999/xlink" x="0px" y="0px"
	 viewBox="1 108.3 398 83.5" enable-background="new 1 108.3 398 83.5" xml:space="preserve">
<g>
	<g>
		<path fill="#FFFFFF" d="M52.6,108.4H40.1c-6.4,0-11.7,5.3-11.7,11.7h11.7h12.4c9.9,0,18,8.1,18,18s-8.1,18-18,18H40.1
			c-6.4,0-11.7,5.3-11.7,11.7h11.7h12.4c16.4,0,29.7-13.4,29.7-29.7C82.3,121.7,69,108.4,52.6,108.4z"/>
		<path fill="#FFFFFF" d="M31.3,180c-9.9,0-18-8.1-18-18.1c0-9.9,8.1-18,18-18h12.4c6.4,0,11.7-5.3,11.7-11.7H43.8H31.3
			c-16.3,0-29.7,13.4-29.7,29.7c0,16.4,13.4,29.7,29.7,29.7h12.4c6.4,0,11.7-5.3,11.7-11.7H43.8L31.3,180L31.3,180z"/>
	</g>
	<g>
		<path fill="#FFFFFF" d="M172,150.5c0-9.4-5.3-17.6-15.6-17.6c-9.3,0-15.9,7.6-15.9,17v0.1c0,10.1,7.3,16.9,16.8,16.9
			c6,0,10.2-2.4,13.4-6.1l-4.4-3.9c-2.6,2.5-5.2,3.9-8.8,3.9c-4.8,0-8.6-3-9.4-8.3h24C172,151.9,172,151.2,172,150.5z M156.3,139.1
			c4.7,0,7.6,3.5,8.2,8h-16.6C148.8,142.4,151.9,139.1,156.3,139.1z"/>
		<g>
			<path fill="#FFFFFF" d="M114.7,133.7h7.5v5.8c2.9-4.3,6.7-6.2,11.5-5.8v7.5c-3.9-0.4-6.5,0.6-8.6,2.7c-2,2-3,4.3-3,10v12.4h-7.5
				L114.7,133.7L114.7,133.7z"/>
		</g>
		<path fill="#FFFFFF" d="M229.5,141.2c-1.2-3.2-4.4-7.9-10.7-8.2c-2.4-0.1-5.2,1-6.4,1.6c-1.6,1-3.3,2.2-4.9,4.6
			c-1.5-3-5.3-6.3-9.5-6.3c-2.6,0-6,1.1-9.3,4.7v-4.1h-7.5v32.7h7.5v-13.7c0-3.5,0.5-6.9,1.7-8.7c1.6-2.3,4.1-2.8,5.3-2.8
			c1.4,0,2.8,0.5,4,1.4c1.5,1.3,2.7,3.4,2.7,7.8v15.9l0,0h7.5l0,0v-13.7c0-3.5,0.3-6.9,1.6-8.7c1.6-2.3,4.2-2.8,5.4-2.8
			c1.4,0,2.8,0.5,4,1.4c1.5,1.3,2.7,3.4,2.7,7.8v15.9h7.5v-14.4C230.8,148.9,230.6,144.2,229.5,141.2z"/>
		<g>
			<path fill="#FFFFFF" d="M239.1,150.2v-0.1c0-9.3,7.5-17,17.4-17c10,0,17.4,7.6,17.4,17v0.1c0,9.3-7.5,17-17.5,17
				C246.4,167,239.1,159.5,239.1,150.2z M266.4,150.2v-0.1c0-5.8-4.1-10.5-10-10.5c-6,0-9.9,4.7-9.9,10.4v0.1
				c0,5.7,4.1,10.5,10,10.5C262.6,160.6,266.4,155.8,266.4,150.2z"/>
		</g>
		<path fill="#FFFFFF" d="M339.7,150.5c0-9.4-5.3-17.6-15.6-17.6c-9.3,0-15.9,7.6-15.9,17v0.1c0,10.1,7.3,16.9,16.8,16.9
			c6,0,10.2-2.4,13.4-6.1l-4.4-3.9c-2.6,2.5-5.2,3.9-8.8,3.9c-4.8,0-8.6-3-9.4-8.3h24C339.7,151.9,339.7,151.2,339.7,150.5z
			 M324,139.1c4.7,0,7.6,3.5,8.2,8h-16.6C316.4,142.4,319.6,139.1,324,139.1z"/>
		<g>
			<path fill="#FFFFFF" d="M348.5,121.1h7.5v45.2h-7.5V121.1z"/>
		</g>
		<g>
			<path fill="#FFFFFF" d="M366.9,174.4l2.5-5.6c1.4,0.7,2.9,1.2,4.4,1.2c2.1,0,3.4-0.9,4.7-3.8l-13.6-32.7h8l9.3,24.2l8.5-24.2h7.8
				l-13,33.6c-2.6,6.7-5.5,9.1-10.8,9.1C371.5,176.3,369.1,175.6,366.9,174.4z"/>
		</g>
		<path fill="#FFFFFF" d="M300.8,158.6c-0.5,0.2-2.7,1.2-4.3,1.2c-1.9,0.1-4.3-0.7-4.3-4.3v-15.4h8.8v-6.4h-8.8v-9h-7.5v9h-4.1v6.4
			h4.1v17.2c0,7.2,5.2,9.4,9.4,9.6c2.3,0.1,4.8-0.4,6.9-1.3v-6.7L300.8,158.6z"/>
	</g>
</g>
</svg>
