<svg version="1.1" id="Layer_1" xmlns="http://www.w3.org/2000/svg" xmlns:xlink="http://www.w3.org/1999/xlink" x="0px" y="0px"
	 viewBox="0 0 612.1 128.4" enable-background="new 0 0 612.1 128.4" xml:space="preserve">
<g>
	<g>
		<path fill="#E5544D" d="M78.6,0H59.4c-9.9,0-18,8.1-18,18h18h19.2c15.3,0,27.8,12.5,27.8,27.8c0,15.3-12.5,27.8-27.8,27.8H59.4
			c-9.9,0-18,8.1-18,18h18h19.2c25.3,0,45.8-20.6,45.8-45.8C124.4,20.6,103.9,0,78.6,0z"/>
		<path fill="#E5544D" d="M45.8,110.5C30.5,110.5,18,98,18,82.6c0-15.3,12.5-27.8,27.8-27.8H65c9.9,0,18-8.1,18-18H65H45.8
			C20.6,36.8,0,57.4,0,82.6c0,25.3,20.6,45.8,45.8,45.8H65c9.9,0,18-8.1,18-18H65H45.8z"/>
	</g>
	<g>
		<path fill="#E5544D" d="M262.9,65c0-14.5-8.1-27.1-24.1-27.1c-14.4,0-24.6,11.8-24.6,26.2v0.2c0,15.6,11.3,26.1,25.9,26.1
			c9.3,0,15.8-3.7,20.6-9.4l-6.8-6c-4,3.9-8,6-13.6,6c-7.4,0-13.3-4.6-14.5-12.8h37C262.8,67.1,262.9,66.1,262.9,65z M238.6,47.4
			c7.3,0,11.7,5.4,12.7,12.4h-25.6C227,52.4,231.8,47.4,238.6,47.4z"/>
		<g>
			<path fill="#E5544D" d="M174.5,39h11.5v8.9c4.5-6.7,10.4-9.6,17.8-8.9v11.6c-6-0.6-10.1,1-13.3,4.1c-3.1,3.1-4.6,6.6-4.6,15.5
				v19.2h-11.5V39z"/>
		</g>
		<path fill="#E5544D" d="M351.6,50.7c-1.9-5-6.8-12.2-16.5-12.6c-3.7-0.1-8,1.5-9.8,2.5c-2.5,1.5-5.1,3.4-7.6,7.1
			c-2.3-4.7-8.2-9.7-14.7-9.7c-4,0-9.2,1.7-14.4,7.3V39H277v50.4h11.5V68.2c0-5.4,0.7-10.6,2.6-13.4c2.5-3.6,6.4-4.3,8.2-4.3
			c2.1,0,4.3,0.7,6.1,2.2c2.3,2,4.1,5.3,4.1,12.1v24.5h0h11.5h0V68.2c0-5.4,0.5-10.6,2.4-13.4c2.5-3.6,6.5-4.3,8.3-4.3
			c2.1,0,4.3,0.7,6.1,2.2c2.3,2,4.1,5.3,4.1,12.1v24.5h11.5V67.1C353.6,62.5,353.3,55.2,351.6,50.7z"/>
		<g>
			<path fill="#E5544D" d="M366.4,64.5v-0.2c0-14.4,11.5-26.3,26.9-26.3c15.5,0,26.8,11.7,26.8,26.2v0.2c0,14.3-11.5,26.2-27,26.2
				C377.7,90.5,366.4,78.8,366.4,64.5z M408.5,64.5v-0.2c0-8.9-6.4-16.2-15.5-16.2c-9.3,0-15.2,7.3-15.2,16v0.2
				c0,8.8,6.4,16.2,15.4,16.2C402.6,80.5,408.5,73.1,408.5,64.5z"/>
		</g>
		<path fill="#E5544D" d="M521.6,65c0-14.5-8.1-27.1-24.1-27.1c-14.4,0-24.6,11.8-24.6,26.2v0.2c0,15.6,11.3,26.1,25.9,26.1
			c9.3,0,15.8-3.7,20.6-9.4l-6.8-6c-4,3.9-8,6-13.6,6c-7.4,0-13.3-4.6-14.5-12.8h37C521.5,67.1,521.6,66.1,521.6,65z M497.4,47.4
			c7.3,0,11.7,5.4,12.7,12.4h-25.6C485.7,52.4,490.6,47.4,497.4,47.4z"/>
		<g>
			<path fill="#E5544D" d="M535.1,19.6h11.5v69.7h-11.5V19.6z"/>
		</g>
		<g>
			<path fill="#E5544D" d="M563.5,101.8l3.9-8.6c2.1,1.1,4.4,1.9,6.8,1.9c3.2,0,5.3-1.4,7.2-5.8l-21-50.4h12.3L587,76.3l13.1-37.4
				h12l-20,51.8c-4,10.3-8.5,14.1-16.6,14.1C570.6,104.8,567,103.7,563.5,101.8z"/>
		</g>
		<path fill="#E5544D" d="M461.5,77.5c-0.7,0.3-4.2,1.8-6.7,1.8c-3,0.1-6.7-1.1-6.7-6.6V48.9h13.6V39h-13.6V25.1h-11.5V39h-6.4v9.9
			h6.4v26.5c0,11.1,8,14.5,14.5,14.8c3.5,0.2,7.4-0.6,10.6-2V77.9L461.5,77.5z"/>
	</g>
</g>
<g>
</g>
</svg>
